<svg width="22" height="32" xmlns="http://www.w3.org/2000/svg">
 <!-- Generator: Sketch 40.1 (33804) - http://www.bohemiancoding.com/sketch -->
 <title>Imported Layers</title>
 <desc>Created with Sketch.</desc>

 <g>
  <title>background</title>
  <rect fill="none" id="canvas_background" height="402" width="582" y="-1" x="-1"/>
 </g>
 <g>
  <title>Layer 1</title>
  <path stroke="#ffffff" id="svg_1" d="m1.113179,14.604768c2.504621,0 4.859519,0.980529 6.62854,2.759314c1.77309,1.779599 2.747923,4.15077 2.747923,6.674107l3.861088,0c0,-7.329963 -5.939321,-13.292067 -13.238364,-13.292067l0,3.858646l0.000814,0zm0.004882,-6.841732c8.928918,0 16.191343,7.30311 16.191343,16.279222l3.85946,0c0,-11.103982 -8.994829,-20.138681 -20.051617,-20.138681l0,3.85946l0.000814,0zm5.337984,13.58175c0,1.476896 -1.196978,2.674688 -2.673061,2.674688s-2.673061,-1.197791 -2.673061,-2.674688c0,-1.475269 1.196978,-2.67306 2.673061,-2.67306s2.673061,1.196978 2.673061,2.67306z" fill="#ffffff"/>
 </g>
</svg>