<svg width="12" height="16" xmlns="http://www.w3.org/2000/svg">
 <!-- Generator: Sketch 40.1 (33804) - http://www.bohemiancoding.com/sketch -->
 <title>Bitcoin_Symbol</title>
 <desc>Created with Sketch.</desc>

 <g>
  <title>background</title>
  <rect fill="none" id="canvas_background" height="402" width="582" y="-1" x="-1"/>
 </g>
 <g>
  <title>Layer 1</title>
  <path opacity="0.8" stroke="null" id="svg_3" d="m1.14175,7.537293c1.33021,0 2.58091,0.52077 3.52044,1.46549c0.94169,0.94515 1.45943,2.20448 1.45943,3.54464l2.05064,0c0,-3.89297 -3.1544,-7.05947 -7.03094,-7.05947l0,2.04934l0.00043,0zm0.00259,-3.63367c4.74218,0 8.59928,3.87871 8.59928,8.64596l2.04977,0c0,-5.89737 -4.77718,-10.69573 -10.64948,-10.69573l0,2.04977l0.00043,0zm2.83503,7.21332c0,0.78439 -0.63572,1.42054 -1.41968,1.42054s-1.41967,-0.63615 -1.41967,-1.42054c0,-0.78352 0.63572,-1.41967 1.41967,-1.41967s1.41968,0.63572 1.41968,1.41967z" stroke-width="0" fill="#666666"/>
 </g>
</svg>