<svg width="33" height="33" xmlns="http://www.w3.org/2000/svg">
 <!-- Generator: Sketch 40.1 (33804) - http://www.bohemiancoding.com/sketch -->
 <title>Group</title>
 <desc>Created with Sketch.</desc>

 <g>
  <title>background</title>
  <rect fill="none" id="canvas_background" height="402" width="582" y="-1" x="-1"/>
 </g>
 <g>
  <title>Layer 1</title>
  <g fill-rule="evenodd" fill="none" id="Symbols">
   <g id="Icons/Transaction/Pending">
    <g id="Icons/Send">
     <g id="icons/received">
      <g id="users-24px-outline-2_a-check">
       <g id="Group">
        <path fill="#FFF6EF" id="Oval-204" d="m16.5,33c9.1127,0 16.5,-7.3873 16.5,-16.5c0,-9.1127 -7.3873,-16.5 -16.5,-16.5c-9.1127,0 -16.5,7.3873 -16.5,16.5c0,9.1127 7.3873,16.5 16.5,16.5z"/>
        <path stroke="#F6A623" id="Shape" d="m15.72759,17.30346c-2.42474,0 -4.57559,0.5478 -5.98888,1.02434c-1.04323,0.35289 -1.73871,1.33601 -1.73871,2.43762l0,3.40701l6.86897,0"/>
        <path stroke="#F6A623" id="Shape" d="m15.72759,17.30346l0,0c-2.37065,0 -4.2931,-2.78108 -4.2931,-5.15173l0,-0.85862c0,-2.37066 1.92245,-4.29311 4.2931,-4.29311l0,0c2.37066,0 4.29311,1.92245 4.29311,4.29311l0,0.85862c0,2.37065 -1.92245,5.15173 -4.29311,5.15173l0,0z"/>
        <polyline points="19.162080764770508,23.313812255859375 20.879323959350586,25.031055450439453 25.172433853149414,20.737945556640625 " stroke="#F6A623" id="Shape"/>
       </g>
      </g>
     </g>
    </g>
   </g>
   <path id="svg_1" d="m4.390313,15.466396l3.30001,-5.669643l5.715366,-3.27361l6.600021,0l5.715366,3.27361l3.300009,5.669643l0,6.547221l-3.300009,5.669643l-5.715366,3.273609l-6.600021,0l-5.715366,-3.273609l-3.30001,-5.669643l0,-6.547221z" stroke-width="1.5" fill="#FFF6EF"/>
   <path stroke="null" id="svg_2" d="m13.861242,20.60955c1.738668,0 3.3734,0.537261 4.601426,1.511911c1.23085,0.975095 1.907564,2.274331 1.907564,3.656942l2.680305,0c0,-4.016305 -4.122982,-7.283121 -9.189861,-7.283121l0,2.114267l0.000565,0zm0.003389,-3.74879c6.198312,0 11.239772,4.001592 11.239772,8.919872l2.679176,0c0,-6.084203 -6.244067,-11.034585 -13.919512,-11.034585l0,2.114713l0.000565,0zm3.705543,7.441847c0,0.809236 -0.830923,1.465541 -1.855596,1.465541s-1.855596,-0.656306 -1.855596,-1.465541c0,-0.808344 0.830923,-1.46465 1.855596,-1.46465s1.855596,0.65586 1.855596,1.46465z" stroke-width="1.5" fill="#FFF6EF"/>
   <path stroke="#fff6ef" id="svg_3" d="m7.904097,15.750288c2.437904,0 4.730073,0.95441 6.451971,2.685813c1.725859,1.732195 2.674725,4.040204 2.674725,6.496325l3.758238,0c0,-7.134711 -5.781112,-12.938 -12.885725,-12.938l0,3.755861l0.000792,0zm0.004752,-6.659486c8.691073,0 15.760044,7.108574 15.760044,15.845585l3.756653,0c0,-10.8082 -8.755228,-19.602238 -19.51749,-19.602238l0,3.756653l0.000792,0zm5.195793,13.219967c0,1.437556 -1.165093,2.603441 -2.601857,2.603441s-2.601857,-1.165885 -2.601857,-2.603441c0,-1.435971 1.165093,-2.601857 2.601857,-2.601857s2.601857,1.165093 2.601857,2.601857z" stroke-width="2.7" fill="#f6a623"/>
  </g>
 </g>
</svg>