<svg width="247" height="247" xmlns="http://www.w3.org/2000/svg">
 <!-- Generator: Sketch 42 (36781) - http://www.bohemiancoding.com/sketch -->
 <title>tour-control</title>
 <desc>Created with Sketch.</desc>
 <defs>
  <linearGradient id="linearGradient-1" y2="89.4673583%" x2="50%" y1="0%" x1="50%">
   <stop offset="0%" stop-color="#192C3A"/>
   <stop offset="100%" stop-color="#192C3A"/>
  </linearGradient>
  <filter height="200%" width="200%" y="-50%" x="-50%" id="svg_2_blur">
   <feGaussianBlur stdDeviation="0" in="SourceGraphic"/>
  </filter>
 </defs>
 <g>
  <title>background</title>
  <rect fill="none" id="canvas_background" height="402" width="582" y="-1" x="-1"/>
 </g>
 <g>
  <title>Layer 1</title>
  <g fill-rule="evenodd" fill="none" id="Page-1">
   <g id="tour-control">
    <g id="Onboarding">
     <g id="0.2.3---Tour-3">
      <g id="bg-3">
       <path opacity="0.3" fill-rule="nonzero" fill="url(#linearGradient-1)" id="Oval-2" d="m123.5,247c68.20717,0 123.5,-55.29283 123.5,-123.5c0,-68.20717 -55.29283,-123.5 -123.5,-123.5c-68.20717,0 -123.5,55.29283 -123.5,123.5c0,68.20717 55.29283,123.5 123.5,123.5z"/>
       <rect rx="8" height="183.875349" width="99.831006" y="24" x="63" fill-rule="nonzero" fill="#192C3A" fill-opacity="0.65" stroke-width="2" stroke="#707D89" id="Combined-Shape"/>
       <path stroke-linecap="square" stroke-width="2" stroke="#707D89" id="Line" d="m63.51995,180.63456l98.7911,0"/>
       <path stroke-linecap="square" stroke-width="2" stroke="#707D89" id="Line" d="m104.0763,194.25495l18.71831,0"/>
       <g stroke-width="2" stroke="#12E5B6" id="Group-3">
        <rect rx="4" height="65.721497" width="74.760036" y="159.648337" x="125.005478" fill-rule="nonzero" fill="#192C3A" id="Rectangle-path"/>
        <path id="Shape" d="m143.69549,159.64834l0,-18.77757c0,-10.32767 8.4105,-18.77757 18.69001,-18.77757l0,0c10.2795,0 18.69,8.4499 18.69,18.77757l0,18.77757"/>
        <path fill-rule="nonzero" fill="#F9F9F9" id="Shape" d="m161.63008,187.81469l0,9.38879"/>
       </g>
      </g>
     </g>
    </g>
   </g>
  </g>
  <path stroke="#e5e5e5" filter="url(#svg_2_blur)" opacity="0.7" id="svg_2" d="m99.39281,103.37558c3.495564,0 6.782167,1.372763 9.251094,3.863104c2.474605,2.49148 3.835127,5.811175 3.835127,9.343904l5.388711,0c0,-10.262117 -8.289189,-18.609202 -18.476068,-18.609202l0,5.402194l0.001136,0zm0.006814,-9.578584c12.461608,0 22.597381,10.224523 22.597381,22.791288l5.38644,0c0,-15.545832 -12.553596,-28.194621 -27.984957,-28.194621l0,5.403333l0.001136,0zm7.449936,19.014765c0,2.067689 -1.670557,3.744625 -3.730646,3.744625s-3.730646,-1.676936 -3.730646,-3.744625c0,-2.065411 1.670557,-3.742346 3.730646,-3.742346s3.730646,1.675796 3.730646,3.742346z" fill="none"/>
 </g>
</svg>