<svg width="51" height="51" xmlns="http://www.w3.org/2000/svg">
 <!-- Generator: Sketch 42 (36781) - http://www.bohemiancoding.com/sketch -->
 <title>icon-bitcoin</title>
 <desc>Created with Sketch.</desc>

 <g>
  <title>background</title>
  <rect fill="none" id="canvas_background" height="402" width="582" y="-1" x="-1"/>
 </g>
 <g>
  <title>Layer 1</title>
  <ellipse ry="22.5" rx="22.5" id="svg_1" cy="25" cx="25.5" stroke-width="1.5" stroke="#000" fill="#f7ad0e"/>
  <path stroke="#ffffff" id="svg_2" d="m17.37642,23.706422c2.611742,0 5.067356,1.022466 6.912036,2.877328c1.848923,1.855711 2.865449,4.328296 2.865449,6.959554l4.026223,0c0,-7.64346 -6.19334,-13.86056 -13.804556,-13.86056l0,4.023678l0.000849,0zm0.005091,-7.134349c9.310799,0 16.883832,7.615459 16.883832,16.975473l4.024526,0c0,-11.578892 -9.379529,-21 -20.909206,-21l0,4.024526l0.000849,0zm5.566285,14.162633c0,1.540062 -1.248171,2.789082 -2.787385,2.789082s-2.787385,-1.24902 -2.787385,-2.789082c0,-1.538365 1.248171,-2.787385 2.787385,-2.787385s2.787385,1.248172 2.787385,2.787385z" stroke-width="1.5" fill="#ffffff"/>
 </g>
</svg>