<svg width="356" height="156" xmlns="http://www.w3.org/2000/svg">
 <!-- Generator: Sketch 3.1.1 (8761) - http://www.bohemiancoding.com/sketch -->

 <title>Artboard 1</title>
 <desc>Created with Sketch.</desc>
 <g>
  <title>background</title>
  <rect fill="none" id="canvas_background" height="158" width="358" y="-1" x="-1"/>
 </g>
 <g>
  <title>Layer 1</title>
  <text font-style="italic" font-weight="bold" stroke="#000" transform="matrix(3.1905552330260685,0,0,3.4727734419456078,-54.60086649152832,-100.39284571637116) " xml:space="preserve" text-anchor="start" font-family="Euphoria, sans-serif" font-size="24" id="svg_1" y="62.506721" x="20.880902" stroke-width="0" fill="#ffffff">WiFicoin</text>
  <path stroke="#000" id="svg_2" d="m215.136177,44.05223c3.99562,0 7.75239,1.46067 10.5745,4.11047c2.82861,2.65102 4.38376,6.18328 4.38376,9.94222l6.15959,0c0,-10.91923 -9.47499,-19.8008 -21.11914,-19.8008l0,5.74811l0.00129,0zm0.00779,-10.19193c14.24429,0 25.83003,10.87923 25.83003,24.25068l6.15699,0c0,-16.54127 -14.34943,-30 -31.98831,-30l0,5.74932l0.00129,0zm8.51568,20.23234c0,2.20009 -1.90953,3.9844 -4.26433,3.9844s-4.26433,-1.78431 -4.26433,-3.9844c0,-2.19767 1.90954,-3.98198 4.26433,-3.98198s4.26433,1.7831 4.26433,3.98198z" stroke-opacity="null" stroke-width="0" fill="#ffffff"/>
 </g>
</svg>