<svg width="356" height="156" xmlns="http://www.w3.org/2000/svg">
 <!-- Generator: Sketch 3.1.1 (8761) - http://www.bohemiancoding.com/sketch -->
 <title>Artboard 1</title>
 <desc>Created with Sketch.</desc>

 <g>
  <title>background</title>
  <rect fill="none" id="canvas_background" height="402" width="582" y="-1" x="-1"/>
 </g>
 <g>
  <title>Layer 1</title>
  <text font-style="italic" font-weight="bold" stroke="#000" transform="matrix(3.538731349492085,0,0,3.85174721988461,-88.89415407376016,-123.25910734621174) " xml:space="preserve" text-anchor="start" font-family="Euphoria, sans-serif" font-size="24" id="svg_1" y="62.794675" x="21.821177" stroke-width="0" fill="#ffffff">Wificoin</text>
  <path stroke="#000" id="svg_2" d="m204.136194,43.552251c3.995619,0 7.752384,1.460665 10.574501,4.110469c2.828608,2.651016 4.383758,6.18328 4.383758,9.94222l6.159588,0c0,-10.919229 -9.474992,-19.800801 -21.119145,-19.800801l0,5.748111l0.001298,0zm0.007789,-10.191927c14.244291,0 25.830029,10.879228 25.830029,24.250678l6.156992,0c0,-16.541275 -14.349439,-30.000001 -31.988319,-30.000001l0,5.749323l0.001298,0zm8.51568,20.232333c0,2.200089 -1.909537,3.984404 -4.26433,3.984404s-4.26433,-1.784315 -4.26433,-3.984404c0,-2.197665 1.909537,-3.981979 4.26433,-3.981979s4.26433,1.783102 4.26433,3.981979z" stroke-opacity="null" stroke-width="0" fill="#ffffff"/>
 </g>
</svg>